<svg width="20" height="20" viewBox="0 0 20 20" fill="none" xmlns="http://www.w3.org/2000/svg">
    <path d="M10 0C15.5228 0 20 4.47715 20 10C20 15.5228 15.5228 20 10 20C4.47715 20 0 15.5228 0 10C0 4.47715 4.47715 0 10 0ZM10 1.66667C5.39763 1.66667 1.66667 5.39763 1.66667 10C1.66667 14.6024 5.39763 18.3333 10 18.3333C14.6024 18.3333 18.3333 14.6024 18.3333 10C18.3333 5.39763 14.6024 1.66667 10 1.66667ZM13.575 6.90833C13.9004 6.5829 14.4329 6.5829 14.7583 6.90833C15.0838 7.23377 15.0838 7.76623 14.7583 8.09167L8.92259 13.9226C8.59715 14.248 8.06951 14.248 7.74408 13.9226L4.82741 11.0059C4.50197 10.6805 4.50197 10.1528 4.82741 9.82741C5.15285 9.50197 5.68049 9.50197 6.00592 9.82741L8.33333 12.1548L13.575 6.90833Z" fill="url(#paint0_linear_22_1591)"/>
    <defs>
        <linearGradient id="paint0_linear_22_1591" x1="3.72529e-08" y1="10" x2="20" y2="10" gradientUnits="userSpaceOnUse">
            <stop stop-color="#838BD8"/>
            <stop offset="1" stop-color="#283BEC"/>
        </linearGradient>
    </defs>
</svg>
