<svg width="20" height="20" viewBox="0 0 20 20" fill="none" xmlns="http://www.w3.org/2000/svg">
    <path fill-rule="evenodd" clip-rule="evenodd" d="M0 10C0 4.48 4.48 0 10 0C15.52 0 20 4.48 20 10C20 15.52 15.52 20 10 20C4.48 20 0 15.52 0 10ZM9.99999 1.63636C5.38326 1.63636 1.63635 5.38327 1.63635 10C1.63635 14.6167 5.38326 18.3636 9.99999 18.3636C14.6167 18.3636 18.3636 14.6167 18.3636 10C18.3636 5.38327 14.6167 1.63636 9.99999 1.63636ZM9.09091 10.4545V5.90909C9.09091 5.40701 9.49792 5 10 5C10.5021 5 10.9091 5.40701 10.9091 5.90909V10.4545C10.9091 10.9566 10.5021 11.3636 10 11.3636C9.49792 11.3636 9.09091 10.9566 9.09091 10.4545ZM8.86374 13.8636C8.86374 13.2361 9.37246 12.7274 10 12.7274H10.0001C10.6276 12.7274 11.1364 13.2361 11.1364 13.8636C11.1364 14.4912 10.6276 14.9999 10.0001 14.9999H10C9.37246 14.9999 8.86374 14.4912 8.86374 13.8636Z" fill="url(#paint0_linear_22_1584)"/>
    <defs>
        <linearGradient id="paint0_linear_22_1584" x1="3.72529e-08" y1="10" x2="20" y2="10" gradientUnits="userSpaceOnUse">
            <stop stop-color="#FF6D6D"/>
            <stop offset="1" stop-color="#EF4444"/>
        </linearGradient>
    </defs>
</svg>
