<svg width="26" height="21" viewBox="0 0 26 21" fill="none" xmlns="http://www.w3.org/2000/svg">
    <path d="M24.8164 4.17969C25.1094 4.17969 25.4023 3.93555 25.4023 3.59375V2.03125C25.4023 1.73828 25.1094 1.44531 24.8164 1.44531H7.23828C6.89648 1.44531 6.65234 1.73828 6.65234 2.03125V3.59375C6.65234 3.93555 6.89648 4.17969 7.23828 4.17969H24.8164ZM25.4023 11.4062V9.84375C25.4023 9.55078 25.1094 9.25781 24.8164 9.25781H7.23828C6.89648 9.25781 6.65234 9.55078 6.65234 9.84375V11.4062C6.65234 11.748 6.89648 11.9922 7.23828 11.9922H24.8164C25.1094 11.9922 25.4023 11.748 25.4023 11.4062ZM25.4023 19.2188V17.6562C25.4023 17.3633 25.1094 17.0703 24.8164 17.0703H7.23828C6.89648 17.0703 6.65234 17.3633 6.65234 17.6562V19.2188C6.65234 19.5605 6.89648 19.8047 7.23828 19.8047H24.8164C25.1094 19.8047 25.4023 19.5605 25.4023 19.2188ZM4.89453 4.375V1.25C4.89453 0.957031 4.60156 0.664062 4.30859 0.664062H1.18359C0.841797 0.664062 0.597656 0.957031 0.597656 1.25V4.375C0.597656 4.7168 0.841797 4.96094 1.18359 4.96094H4.30859C4.60156 4.96094 4.89453 4.7168 4.89453 4.375ZM4.89453 12.1875V9.0625C4.89453 8.76953 4.60156 8.47656 4.30859 8.47656H1.18359C0.841797 8.47656 0.597656 8.76953 0.597656 9.0625V12.1875C0.597656 12.5293 0.841797 12.7734 1.18359 12.7734H4.30859C4.60156 12.7734 4.89453 12.5293 4.89453 12.1875ZM4.89453 20V16.875C4.89453 16.582 4.60156 16.2891 4.30859 16.2891H1.18359C0.841797 16.2891 0.597656 16.582 0.597656 16.875V20C0.597656 20.3418 0.841797 20.5859 1.18359 20.5859H4.30859C4.60156 20.5859 4.89453 20.3418 4.89453 20Z" fill="#B3B6C5"/>
</svg>
