<svg width="50" height="50" viewBox="0 0 50 50" fill="none" xmlns="http://www.w3.org/2000/svg">
    <rect width="50" height="50" rx="25" fill="url(#paint0_linear_22_1217)"/>
    <path d="M31.875 24.25H26.25V18.625C26.25 18.3125 25.9375 18 25.625 18H24.375C24.0234 18 23.75 18.3125 23.75 18.625V24.25H18.125C17.7734 24.25 17.5 24.5625 17.5 24.875V26.125C17.5 26.4766 17.7734 26.75 18.125 26.75H23.75V32.375C23.75 32.7266 24.0234 33 24.375 33H25.625C25.9375 33 26.25 32.7266 26.25 32.375V26.75H31.875C32.1875 26.75 32.5 26.4766 32.5 26.125V24.875C32.5 24.5625 32.1875 24.25 31.875 24.25Z" fill="white"/>
    <defs>
        <linearGradient id="paint0_linear_22_1217" x1="9.31323e-08" y1="25" x2="50" y2="25" gradientUnits="userSpaceOnUse">
            <stop stop-color="#838BD8"/>
            <stop offset="1" stop-color="#283BEC"/>
        </linearGradient>
    </defs>
</svg>
